<svg width="16" height="17" viewBox="0 0 16 17" fill="none" xmlns="http://www.w3.org/2000/svg">
<path d="M14.75 6.5625H9.6875V1.5C9.6875 0.902344 9.16016 0.375 8.5625 0.375H7.4375C6.80469 0.375 6.3125 0.902344 6.3125 1.5V6.5625H1.25C0.617188 6.5625 0.125 7.08984 0.125 7.6875V8.8125C0.125 9.44531 0.617188 9.9375 1.25 9.9375H6.3125V15C6.3125 15.6328 6.80469 16.125 7.4375 16.125H8.5625C9.16016 16.125 9.6875 15.6328 9.6875 15V9.9375H14.75C15.3477 9.9375 15.875 9.44531 15.875 8.8125V7.6875C15.875 7.08984 15.3477 6.5625 14.75 6.5625Z" fill="#202020"/>
</svg>
