<svg width="33" height="33" viewBox="0 0 33 33" fill="none" xmlns="http://www.w3.org/2000/svg">
<path fill-rule="evenodd" clip-rule="evenodd" d="M16.405 0.5C7.34393 0.5 0 7.84393 0 16.905C0 24.1519 4.69913 30.3017 11.219 32.4728C12.0398 32.6208 12.3358 32.1159 12.3358 31.6817C12.3358 31.2919 12.3227 30.2589 12.3177 28.8921C7.75348 29.8823 6.78964 26.6914 6.78964 26.6914C6.0462 24.7966 4.96887 24.2917 4.96887 24.2917C3.48035 23.2736 5.08236 23.2966 5.08236 23.2966C6.73043 23.4117 7.59393 24.9874 7.59393 24.9874C9.05779 27.4941 11.4361 26.7704 12.3671 26.351C12.5168 25.2901 12.9444 24.5664 13.4115 24.1568C9.76997 23.744 5.94093 22.3361 5.94093 16.0481C5.94093 14.2602 6.58075 12.7931 7.62519 11.6483C7.45906 11.2322 6.89161 9.56272 7.78802 7.30609C7.78802 7.30609 9.1647 6.86364 12.298 8.9854C13.6362 8.62137 15.0166 8.43555 16.4034 8.43276C17.7902 8.43501 19.1707 8.62084 20.5087 8.9854C23.6437 6.862 25.0187 7.30609 25.0187 7.30609C25.9151 9.56272 25.3526 11.2322 25.1815 11.6483C26.2342 12.7931 26.8658 14.2586 26.8658 16.0481C26.8658 22.3525 23.0335 23.7374 19.3788 24.1437C19.9627 24.6503 20.489 25.6503 20.489 27.1799C20.489 29.3741 20.4692 31.1438 20.4692 31.6817C20.4692 32.1208 20.762 32.6307 21.5992 32.4695C28.1158 30.2951 32.81 24.1502 32.81 16.905C32.81 7.84393 25.4661 0.5 16.405 0.5Z" fill="#F7F7F7"/>
</svg>
