<svg width="33" height="33" viewBox="0 0 33 33" fill="none" xmlns="http://www.w3.org/2000/svg">
<path fill-rule="evenodd" clip-rule="evenodd" d="M30.0712 3.18274C30.8756 3.98686 31.5033 4.95009 31.914 6.01076C32.3876 7.26913 32.6403 8.59984 32.661 9.94422C32.7603 11.6421 32.7603 12.1922 32.7603 16.5264V16.5266C32.7603 20.8611 32.7373 21.4022 32.661 23.109C32.6343 24.4361 32.3842 25.7455 31.9176 26.9875C31.5063 28.048 30.8784 29.0112 30.0741 29.8155C29.2697 30.6199 28.3066 31.2477 27.246 31.659C26.0045 32.1241 24.6931 32.3755 23.3675 32.4024C21.6732 32.5 21.1178 32.5 16.7852 32.5C12.4525 32.5 11.9114 32.4769 10.2028 32.4024C8.87453 32.3587 7.56348 32.0887 6.32608 31.604C5.2652 31.1934 4.30164 30.566 3.49695 29.762C2.69227 28.9579 2.06416 27.9948 1.65276 26.9342C1.18613 25.6905 0.935968 24.3811 0.909354 23.054C0.809998 21.3561 0.809998 20.8043 0.809998 16.4716C0.809998 12.1372 0.833063 11.596 0.909354 9.88922C0.935284 8.56358 1.18667 7.25203 1.65276 6.01076C2.06301 4.94981 2.69051 3.98634 3.495 3.18215C4.29949 2.37797 5.2632 1.75083 6.3243 1.34098C7.56406 0.873655 8.87456 0.621635 10.1992 0.595808C11.8936 0.5 12.4489 0.5 16.7816 0.5C21.1143 0.5 21.6554 0.521291 23.364 0.595808C24.6897 0.623027 26.0011 0.874996 27.2425 1.34098C28.3033 1.75131 29.2668 2.37862 30.0712 3.18274ZM29.2012 25.9176C29.5549 24.9582 29.7416 23.9452 29.753 22.9227V22.9245H29.7725C29.8488 21.2283 29.8488 20.7635 29.8488 16.4415C29.8488 12.1177 29.8293 11.6439 29.753 9.95664C29.7365 8.94562 29.5499 7.94458 29.2012 6.99545C28.9346 6.30541 28.5267 5.67872 28.0036 5.15563C27.4805 4.63254 26.8538 4.22459 26.1637 3.95797C25.2152 3.60503 24.2128 3.41836 23.2008 3.40619C21.4851 3.30861 21.0415 3.3086 16.7177 3.3086C12.3939 3.3086 11.9202 3.3299 10.2329 3.40619C9.22166 3.42032 8.22023 3.60692 7.27174 3.95797C5.87187 4.49379 4.76298 5.59559 4.22184 6.99545C3.86816 7.95428 3.68152 8.96666 3.67005 9.98858C3.57602 11.7078 3.57602 12.1496 3.57602 16.4734C3.57602 20.7954 3.59376 21.2709 3.67005 22.9564C3.68658 23.9674 3.87311 24.9685 4.22184 25.9176C4.48946 26.6089 4.8992 27.2363 5.42457 27.7592C5.94994 28.2821 6.57924 28.6889 7.27174 28.9533C8.21976 29.3061 9.22149 29.4927 10.2329 29.5051C11.9504 29.6027 12.3922 29.6027 16.7177 29.6027C21.0398 29.6027 21.5153 29.5832 23.2008 29.5051C24.2127 29.492 25.2149 29.3054 26.1637 28.9533C26.8538 28.6873 27.4806 28.2797 28.0037 27.7569C28.5269 27.2341 28.9348 26.6076 29.2012 25.9176ZM25.3015 9.86791C26.3578 9.86791 27.2141 9.01161 27.2141 7.95529C27.2141 6.89898 26.3578 6.04268 25.3015 6.04268C24.2452 6.04268 23.3889 6.89898 23.3889 7.95529C23.3889 9.01161 24.2452 9.86791 25.3015 9.86791ZM16.7727 8.25693C14.5969 8.25693 12.5102 9.12129 10.9716 10.6598C9.43304 12.1984 8.56869 14.2851 8.56869 16.461C8.56869 18.6368 9.43304 20.7235 10.9716 22.2621C12.5102 23.8007 14.5969 24.665 16.7727 24.665C18.9486 24.665 21.0353 23.8007 22.5739 22.2621C24.1124 20.7235 24.9768 18.6368 24.9768 16.461C24.9768 14.2851 24.1124 12.1984 22.5739 10.6598C21.0353 9.12129 18.9486 8.25693 16.7727 8.25693ZM16.7727 21.789C15.3592 21.789 14.0035 21.2275 13.004 20.2279C12.0045 19.2284 11.4429 17.8727 11.4429 16.4592C11.4429 15.0456 12.0045 13.69 13.004 12.6905C14.0035 11.6909 15.3592 11.1294 16.7727 11.1294C18.1863 11.1294 19.5419 11.6909 20.5415 12.6905C21.541 13.69 22.1025 15.0456 22.1025 16.4592C22.1025 17.8727 21.541 19.2284 20.5415 20.2279C19.5419 21.2275 18.1863 21.789 16.7727 21.789Z" fill="#F7F7F7"/>
</svg>
