<svg width="33" height="33" viewBox="0 0 33 33" fill="none" xmlns="http://www.w3.org/2000/svg">
<path fill-rule="evenodd" clip-rule="evenodd" d="M8.46539 4.35254C8.46539 6.48024 6.74055 8.20508 4.61285 8.20508C2.48515 8.20508 0.760315 6.48024 0.760315 4.35254C0.760315 2.22484 2.48515 0.5 4.61285 0.5C6.74055 0.5 8.46539 2.22484 8.46539 4.35254ZM12.1031 32.4983V11.1244H18.4735V14.0473H18.5633C19.449 12.3693 21.6147 10.5962 24.8457 10.5962C31.5753 10.5962 32.8149 15.021 32.8149 20.7787V32.5H26.1751V22.1045C26.1751 19.6271 26.1328 16.4384 22.7222 16.4384C19.2641 16.4384 18.7394 19.1394 18.7394 21.9284V32.4983H12.1031ZM7.9354 11.1244H1.28854V32.4983H7.9354V11.1244Z" fill="#F7F7F7"/>
</svg>
